<?xml version="1.0" encoding="iso-8859-1"?>
<!-- Generator: Adobe Illustrator 18.0.0, SVG Export Plug-In . SVG Version: 6.00 Build 0)  -->
<!DOCTYPE svg PUBLIC "-//W3C//DTD SVG 1.1//EN" "http://www.w3.org/Graphics/SVG/1.1/DTD/svg11.dtd">
<svg version="1.1" id="Layer_1" xmlns="http://www.w3.org/2000/svg" xmlns:xlink="http://www.w3.org/1999/xlink" x="0px" y="0px"
	 width="48px" height="48px" viewBox="0 0 48 48" style="enable-background:new 0 0 48 48;" xml:space="preserve">
<g>
	<linearGradient id="SVGID_1_" gradientUnits="userSpaceOnUse" x1="27.0679" y1="7.2542" x2="23.0679" y2="29.0875">
		<stop  offset="0" style="stop-color:#80E81F"/>
		<stop  offset="0.3387" style="stop-color:#67D326"/>
		<stop  offset="1" style="stop-color:#088242"/>
	</linearGradient>
	<path style="fill:url(#SVGID_1_);" d="M30,42H18c-6.627,0-12-5.373-12-12V18c0-6.627,5.373-12,12-12h24v24
		C42,36.627,36.627,42,30,42z"/>
</g>
<rect x="6" y="26" style="opacity:0.05;" width="36" height="6"/>
<rect x="6" y="27" style="opacity:0.07;" width="36" height="6"/>
<g>
	<linearGradient id="SVGID_2_" gradientUnits="userSpaceOnUse" x1="23.5241" y1="41.3343" x2="24.0241" y2="28.5009">
		<stop  offset="0" style="stop-color:#80E81F"/>
		<stop  offset="0.2581" style="stop-color:#71DF21"/>
		<stop  offset="1" style="stop-color:#05A333"/>
	</linearGradient>
	<path style="fill:url(#SVGID_2_);" d="M30,42H18c-6.627,0-12-5.373-12-12v-2h36v2C42,36.627,36.627,42,30,42z"/>
</g>
<path style="opacity:0.05;" d="M34.464,30.528L34.464,30.528l-0.347-1.965L17.95,12.396c-0.756-0.756-2.074-0.756-2.828,0
	l-3.536,3.535C11.208,16.309,11,16.812,11,17.347c0,0.534,0.208,1.036,0.586,1.412l16.171,16.172l7.709,1.289L34.464,30.528z"/>
<path style="opacity:0.07;" d="M33.652,28.806L17.596,12.749c-0.567-0.566-1.556-0.566-2.121,0l-3.536,3.535
	c-0.284,0.283-0.439,0.661-0.439,1.062c0,0.401,0.156,0.777,0.439,1.06l16.058,16.059l2.775,0.465l0-0.001l4.078,0.682
	L33.652,28.806z"/>
<linearGradient id="SVGID_3_" gradientUnits="userSpaceOnUse" x1="26.625" y1="22.4584" x2="21.625" y2="27.4584">
	<stop  offset="0.3048" style="stop-color:#F5FCFF"/>
	<stop  offset="0.7043" style="stop-color:#D3E6D3"/>
	<stop  offset="0.8646" style="stop-color:#A4CBA5"/>
</linearGradient>
<path style="fill:url(#SVGID_3_);" d="M33.812,32.595L34.236,35l-2.423-0.405L33.812,32.595z M12.293,18.052l15.945,15.945
	l2.363,0.395l3-3l-0.413-2.345L17.243,13.102c-0.391-0.391-1.024-0.391-1.414,0l-3.536,3.536
	C11.902,17.028,11.902,17.662,12.293,18.052z"/>
</svg>