<?xml version="1.0" standalone="no"?>
<!DOCTYPE svg PUBLIC "-//W3C//DTD SVG 20010904//EN"
 "http://www.w3.org/TR/2001/REC-SVG-20010904/DTD/svg10.dtd">
<svg version="1.0" xmlns="http://www.w3.org/2000/svg"
 width="653.000000pt" height="489.000000pt" viewBox="0 0 653.000000 489.000000"
 preserveAspectRatio="xMidYMid meet">

<g transform="translate(0.000000,489.000000) scale(0.100000,-0.100000)"
fill="#000000" stroke="none">
<path d="M2761 3886 c-7 -8 -11 -20 -9 -28 2 -7 -7 -23 -20 -36 -28 -28 -25
-42 12 -61 34 -16 83 -5 100 22 9 15 7 22 -11 37 -13 10 -23 29 -23 43 0 14
-7 28 -16 31 -21 8 -20 8 -33 -8z"/>
<path d="M1500 3865 c-7 -8 -10 -22 -6 -30 5 -13 30 -15 173 -13 155 3 168 4
171 22 2 10 -2 22 -10 27 -7 5 -81 9 -164 9 -122 0 -154 -3 -164 -15z"/>
<path d="M962 3608 l3 -23 205 0 c198 0 205 1 205 20 0 19 -8 20 -208 23
l-208 2 3 -22z"/>
<path d="M1520 3610 c-18 -18 -20 -33 -20 -158 0 -122 2 -141 18 -155 16 -15
49 -17 254 -17 215 0 236 2 251 18 14 15 17 42 17 155 0 191 21 177 -270 177
-217 0 -231 -1 -250 -20z m185 -68 c-17 -15 -47 -41 -68 -58 l-38 -31 65 -53
c37 -30 66 -58 66 -62 0 -11 -38 16 -104 74 l-48 43 73 61 c41 34 76 59 79 57
3 -3 -9 -17 -25 -31z m185 -29 c38 -31 67 -59 65 -63 -10 -16 -146 -122 -150
-118 -3 3 26 31 65 63 l70 59 -37 30 c-63 52 -98 85 -90 86 5 0 39 -25 77 -57z"/>
<path d="M5210 3507 c0 -34 -6 -49 -26 -68 -69 -63 -72 -194 -5 -253 11 -11
21 -22 21 -25 0 -3 -25 -7 -56 -9 -102 -5 -144 -44 -144 -135 0 -36 -5 -59
-15 -67 -8 -7 -15 -16 -15 -21 0 -5 7 -9 15 -9 11 0 15 -13 15 -53 0 -71 19
-97 72 -97 34 0 39 -2 33 -17 -5 -10 -23 -97 -41 -193 l-34 -175 -62 -57 c-35
-32 -65 -58 -68 -58 -3 0 -26 41 -51 92 l-46 92 -29 -117 c-28 -115 -28 -117
-11 -164 21 -59 22 -95 2 -133 l-16 -30 78 0 c81 -1 101 -8 122 -48 10 -19 15
-21 27 -11 11 9 18 9 26 1 8 -8 52 -12 123 -12 l112 0 229 233 c174 176 237
247 261 293 58 108 54 185 -13 244 -29 25 -43 30 -88 30 -72 0 -78 -4 -266
-209 -52 -57 -98 -109 -102 -115 -15 -23 -21 7 -24 126 -5 149 2 166 48 121
24 -22 41 -30 61 -28 43 6 96 43 117 85 l20 39 -74 60 -74 60 2 100 c1 68 -3
104 -11 112 -20 20 -16 26 25 34 85 15 152 92 152 175 l0 40 108 0 107 0 -3
105 -3 105 -250 0 -249 0 0 -43z m153 -4 c-7 -2 -19 -2 -25 0 -7 3 -2 5 12 5
14 0 19 -2 13 -5z m121 -79 c3 -8 2 -12 -4 -9 -6 3 -10 10 -10 16 0 14 7 11
14 -7z"/>
<path d="M1032 3501 c-8 -4 -12 -17 -10 -27 3 -18 15 -19 173 -19 l170 0 0 25
0 25 -160 2 c-88 2 -166 -1 -173 -6z"/>
<path d="M2285 3445 c-45 -16 -95 -66 -95 -94 0 -18 9 -16 123 21 67 22 126
44 130 48 12 10 -56 40 -90 40 -15 -1 -46 -7 -68 -15z"/>
<path d="M2326 3360 c-129 -43 -141 -49 -158 -80 -16 -30 -16 -37 -3 -56 13
-20 11 -29 -18 -96 -18 -40 -40 -85 -50 -100 -18 -26 -18 -28 3 -69 33 -64 63
-89 106 -89 21 0 45 7 54 15 13 12 23 13 42 6 37 -14 68 10 68 54 0 19 -4 37
-10 40 -5 3 -10 15 -10 26 0 16 7 19 43 19 75 0 105 50 114 192 5 69 2 97 -11
133 -10 24 -21 46 -24 48 -4 2 -70 -18 -146 -43z"/>
<path d="M3856 3287 c-44 -25 -72 -59 -82 -99 -9 -38 5 -35 60 13 l47 42 16
-24 c20 -30 103 -109 114 -109 4 0 11 9 14 20 8 26 40 43 65 35 26 -8 25 10
-3 60 -47 84 -147 111 -231 62z"/>
<path d="M1276 3268 c-24 -24 -41 -57 -60 -116 -14 -46 -26 -87 -26 -91 0 -14
45 -22 79 -15 26 5 30 10 25 26 -23 74 65 113 112 50 9 -12 16 -9 40 21 21 27
34 35 49 31 11 -3 31 -1 43 3 l23 9 -21 27 c-30 38 -113 78 -176 84 -51 5 -55
4 -88 -29z"/>
<path d="M3230 3160 c0 -68 -3 -81 -19 -90 -11 -5 -22 -10 -25 -10 -3 0 -6 33
-8 73 l-3 72 -35 0 -35 0 0 -75 c-1 -74 -1 -75 -28 -78 -26 -3 -27 -2 -27 52
l0 56 -35 0 -35 0 0 -72 c0 -70 -23 -158 -41 -158 -5 0 -9 -3 -9 -7 0 -5 28
-7 62 -5 l63 3 0 57 c0 54 1 57 25 57 23 0 24 -3 23 -57 l-1 -58 57 1 c31 1
48 3 39 6 -25 6 -26 118 -2 127 32 12 36 6 32 -64 l-3 -70 55 1 c30 1 47 3 38
6 -16 4 -18 18 -18 102 0 92 2 99 26 122 l25 24 -3 -128 -3 -127 50 1 c28 0
44 3 38 6 -10 3 -13 45 -13 159 l0 154 -35 0 c-30 0 -35 -3 -35 -23 0 -13 -11
-34 -25 -47 l-25 -23 0 46 0 47 -35 0 -35 0 0 -80z m-254 -227 c-11 -11 -17 4
-9 23 7 18 8 18 11 1 2 -10 1 -21 -2 -24z"/>
<path d="M3860 3171 c0 -5 10 -7 23 -4 19 4 19 2 -5 -11 -15 -9 -29 -25 -33
-36 -6 -19 -7 -19 -30 -2 -12 9 -21 20 -18 25 11 18 -18 4 -46 -22 -37 -35
-38 -45 -7 -76 28 -28 60 -24 83 12 14 21 17 22 33 8 35 -31 90 -8 90 38 -1
29 -44 77 -70 77 -11 0 -20 -4 -20 -9z m61 -31 c26 -14 25 -56 -2 -70 -41 -23
-80 20 -53 58 17 25 27 27 55 12z m-113 -32 c18 -18 14 -45 -10 -62 -37 -26
-79 14 -58 55 12 21 50 25 68 7z"/>
<path d="M3890 3100 c0 -5 5 -10 10 -10 6 0 10 5 10 10 0 6 -4 10 -10 10 -5 0
-10 -4 -10 -10z"/>
<path d="M3790 3084 c0 -8 5 -12 10 -9 6 4 8 11 5 16 -9 14 -15 11 -15 -7z"/>
<path d="M4153 3134 c-7 -3 -13 -15 -13 -27 0 -28 -8 -38 -44 -61 -28 -18 -28
-19 -25 -98 l4 -81 -35 -12 c-77 -27 -80 -27 -80 -10 0 8 6 18 14 21 8 3 16
11 19 17 3 9 -11 11 -47 9 -60 -3 -92 11 -122 55 l-21 32 -11 -25 c-7 -13 -19
-24 -28 -24 -51 0 -119 -68 -100 -99 4 -6 -5 -13 -19 -17 -52 -13 -72 -91 -40
-154 11 -22 71 -77 92 -85 1 0 -8 -35 -21 -77 l-24 -77 46 -10 c26 -5 70 -13
99 -17 l52 -6 6 -52 c4 -28 2 -103 -4 -166 -5 -63 -9 -115 -8 -116 2 -2 30 3
167 26 44 8 417 108 428 115 1 1 -20 55 -48 120 -28 65 -47 122 -43 126 7 7
267 99 269 96 2 -3 105 -250 113 -272 6 -14 16 13 35 99 l28 118 -37 82 c-95
206 -95 205 -138 234 -51 34 -92 52 -117 52 -17 0 -20 7 -20 51 0 70 -23 114
-77 146 -36 21 -53 25 -93 21 -36 -4 -50 -2 -50 7 0 37 -70 75 -107 59z"/>
<path d="M1505 3110 c28 -12 37 -12 30 0 -3 6 -16 10 -28 9 -21 0 -21 -1 -2
-9z"/>
<path d="M1496 3061 c-4 -5 -2 -12 3 -15 5 -4 12 -2 15 3 4 5 2 12 -3 15 -5 4
-12 2 -15 -3z"/>
<path d="M926 3007 c-9 -7 -18 -26 -20 -42 -3 -26 -8 -30 -52 -40 -62 -14
-102 -35 -136 -72 -27 -28 -67 -107 -68 -132 0 -7 -19 -48 -43 -90 -88 -156
-194 -425 -257 -652 l-18 -67 161 -6 c438 -16 495 -15 534 5 21 10 52 19 69
19 36 0 41 8 50 86 7 57 18 69 30 32 7 -22 8 -22 15 6 5 17 7 31 6 31 -1 1
-90 -13 -197 -31 -267 -45 -338 -50 -377 -31 -96 50 -134 177 -70 234 52 48
53 48 397 44 179 -2 344 -4 368 -6 23 -1 42 2 42 7 0 5 -27 86 -60 180 -43
120 -60 184 -60 219 0 42 -7 60 -42 112 -50 75 -143 174 -180 193 -34 17 -69
18 -92 1z"/>
<path d="M3880 3008 c-22 -10 -23 -12 -6 -15 10 -3 26 2 34 11 19 18 8 20 -28
4z"/>
<path d="M2500 2893 c13 -18 25 -33 27 -33 8 0 -17 38 -33 51 -11 9 -9 2 6
-18z"/>
<path d="M2537 2815 c18 -68 -4 -464 -36 -615 -7 -35 -8 -35 -68 -41 -34 -3
-75 -12 -92 -19 -27 -11 -48 -8 -183 25 -84 21 -154 39 -156 40 -1 1 25 60 58
131 33 70 59 132 56 138 -2 6 -33 -51 -70 -128 -42 -89 -70 -137 -78 -133 -7
2 -39 12 -70 21 -32 9 -58 18 -58 19 0 1 19 62 43 135 24 72 41 132 39 132 -2
0 -23 -13 -47 -30 -24 -16 -48 -30 -54 -30 -24 0 -9 19 33 44 25 15 48 31 52
38 8 13 -2 8 -64 -34 -23 -16 -50 -28 -60 -26 -11 2 0 13 36 36 28 17 52 34
52 37 0 7 -11 1 -67 -37 -23 -15 -50 -28 -60 -29 -11 0 -7 -5 12 -11 17 -6 39
-17 49 -24 16 -11 24 -9 54 11 20 14 37 23 39 22 1 -2 -14 -54 -34 -115 -41
-122 -39 -120 -113 -98 l-45 13 -49 -74 -48 -74 21 -23 c12 -12 18 -26 14 -29
-4 -4 -32 16 -62 45 l-56 53 49 -52 c42 -44 47 -53 32 -59 -13 -5 -32 7 -69
42 l-52 49 48 -51 c36 -38 45 -53 34 -57 -9 -3 -30 10 -53 34 -21 21 -43 39
-48 39 -17 0 85 -98 118 -114 17 -8 87 -20 156 -26 69 -6 126 -13 128 -14 1
-2 0 -10 -4 -19 -5 -15 -39 -17 -298 -20 l-291 -2 298 -3 297 -2 12 26 c9 19
17 24 32 20 12 -4 107 -9 211 -13 206 -7 227 -3 353 53 29 13 55 24 58 24 3 0
20 -15 37 -34 36 -38 102 -61 148 -51 l29 7 0 163 c0 93 -4 165 -9 167 -6 2
-53 124 -106 273 -88 246 -120 328 -98 250z"/>
<path d="M1991 2767 c-25 -64 -72 -229 -68 -233 3 -3 24 52 47 121 23 69 39
129 36 132 -3 3 -10 -6 -15 -20z"/>
<path d="M2100 2699 l-65 -6 88 -1 c85 -2 110 2 65 9 -13 2 -52 1 -88 -2z"/>
<path d="M3073 2615 c-50 -25 -141 -111 -129 -122 3 -3 53 -5 111 -5 76 1 113
5 129 15 21 14 22 18 12 76 -10 59 -11 61 -41 61 -17 0 -54 -11 -82 -25z"/>
<path d="M1693 2420 c-24 -10 -43 -22 -43 -25 0 -3 14 2 31 10 17 9 49 20 72
25 35 7 37 8 12 9 -16 0 -49 -8 -72 -19z"/>
<path d="M5808 2077 c-280 -89 -286 -91 -290 -119 l-5 -28 250 0 c246 0 251 0
291 -24 24 -14 52 -42 66 -68 22 -38 25 -58 30 -181 l5 -138 27 28 c80 83 77
269 -8 503 -30 84 -51 121 -68 119 -6 -1 -140 -42 -298 -92z"/>
<path d="M1430 1871 c0 -5 9 -13 21 -16 11 -4 29 -21 40 -38 10 -18 19 -26 19
-18 0 26 -41 81 -61 81 -10 0 -19 -4 -19 -9z"/>
<path d="M1614 1833 c12 -81 45 -168 81 -210 63 -74 80 -77 419 -79 307 -2
315 -4 316 -41 0 -9 -17 -13 -54 -13 l-54 0 -60 -92 c-66 -104 -172 -283 -172
-292 0 -3 13 -6 30 -6 l29 0 -19 -46 c-11 -25 -20 -48 -20 -50 0 -2 74 -4 163
-4 l164 0 27 50 c15 28 31 50 35 50 4 0 27 27 51 60 l44 61 33 -38 c18 -21 50
-68 70 -105 l37 -68 152 0 c180 0 188 4 149 71 -30 53 -31 59 -5 59 11 0 20 2
20 5 0 3 -46 97 -102 209 l-102 204 32 40 c69 87 78 167 27 244 l-25 38 -636
0 -636 0 6 -47z"/>
<path d="M3152 1858 c-27 -30 -42 -70 -42 -116 0 -36 89 -322 100 -322 11 0
40 70 40 96 0 13 7 27 16 31 8 3 49 72 89 153 41 82 79 151 85 155 30 19 -2
25 -128 25 -131 0 -140 -1 -160 -22z"/>
<path d="M4517 1873 c-7 -7 -10 -73 -3 -73 2 0 34 9 71 21 51 15 65 24 61 35
-3 9 -6 18 -6 20 0 7 -116 4 -123 -3z"/>
<path d="M5198 1856 c-86 -35 -150 -80 -220 -154 -89 -95 -120 -165 -173 -391
-25 -105 -45 -193 -45 -196 0 -3 14 -5 31 -5 33 0 33 2 12 -87 l-5 -23 166 0
166 0 25 55 c17 39 30 55 43 55 27 0 31 -8 22 -41 l-9 -29 188 0 189 0 12 30
c7 17 24 36 39 43 36 17 75 93 106 208 15 52 37 109 50 125 23 29 24 29 152
34 l128 5 3 150 c2 136 0 153 -18 183 -37 60 -51 62 -447 62 -353 0 -359 -1
-415 -24z"/>
<path d="M3776 1645 c-9 -39 -19 -78 -23 -89 -3 -11 -1 -16 5 -12 12 7 46 140
40 158 -3 7 -12 -19 -22 -57z"/>
<path d="M842 1343 c38 -82 74 -152 78 -157 5 -5 9 59 8 147 l0 157 -78 0 -79
0 71 -147z"/>
<path d="M990 1365 c0 -69 2 -125 5 -125 3 0 46 35 96 77 84 71 90 79 85 106
-3 16 -6 38 -6 48 0 17 -9 19 -90 19 l-90 0 0 -125z"/>
<path d="M3746 1478 c-10 -29 -48 -219 -45 -221 2 -2 61 0 131 3 l127 5 -80
110 c-59 81 -87 111 -105 113 -13 2 -26 -2 -28 -10z"/>
<path d="M595 1391 c-57 -46 -60 -50 -60 -92 1 -24 4 -160 8 -301 l7 -257
-107 -4 c-60 -1 1222 -3 2847 -2 1625 0 2771 1 2547 2 l-409 3 37 66 c20 37
34 68 32 70 -2 2 -93 -5 -203 -16 -240 -24 -224 -24 -224 -4 0 13 -8 15 -42
10 -24 -3 -119 -13 -213 -22 -178 -17 -247 -37 -290 -84 -18 -19 -31 -20 -439
-20 l-421 0 112 113 111 112 -34 74 -34 75 -123 -121 c-80 -80 -133 -124 -152
-128 -17 -4 -41 -18 -55 -30 -45 -41 -60 -44 -127 -28 -44 11 -60 19 -56 29 4
12 -28 14 -192 14 l-197 0 41 48 41 47 -111 3 c-62 1 -113 1 -115 -1 -2 -2 9
-33 25 -68 l29 -64 -51 -11 c-58 -12 -117 -39 -117 -54 0 -6 -20 -10 -43 -10
-32 0 -49 6 -63 21 -10 12 -42 32 -70 44 -58 26 -84 56 -84 97 l0 28 -161 -2
-160 -3 -42 -92 -41 -93 -91 0 c-90 0 -93 1 -152 39 -94 61 -113 94 -128 224
l-7 57 -37 0 c-20 0 -104 -5 -187 -11 l-152 -12 14 -58 c7 -32 20 -88 28 -126
9 -37 18 -78 22 -90 l6 -23 -372 0 -371 0 18 28 c11 15 28 47 38 72 31 74 84
147 148 205 l61 55 -53 113 c-29 61 -65 138 -80 170 -14 31 -30 57 -36 56 -5
0 -37 -22 -70 -48z m1568 -538 c-7 -2 -19 -2 -25 0 -7 3 -2 5 12 5 14 0 19 -2
13 -5z m74 1 c-3 -3 -12 -4 -19 -1 -8 3 -5 6 6 6 11 1 17 -2 13 -5z"/>
<path d="M2750 980 c0 -6 51 -10 134 -10 79 0 137 4 141 10 4 6 -43 10 -134
10 -87 0 -141 -4 -141 -10z"/>
<path d="M2090 960 c0 -13 318 -12 326 1 3 5 -65 9 -160 9 -104 0 -166 -4
-166 -10z"/>
</g>
</svg>
